<?xml version="1.0" encoding="utf-8"?>
<!-- Generator: Adobe Illustrator 18.0.0, SVG Export Plug-In . SVG Version: 6.00 Build 0)  -->
<!DOCTYPE svg PUBLIC "-//W3C//DTD SVG 1.1//EN" "http://www.w3.org/Graphics/SVG/1.1/DTD/svg11.dtd">
<svg version="1.1" id="Layer_1" xmlns="http://www.w3.org/2000/svg" xmlns:xlink="http://www.w3.org/1999/xlink" x="0px" y="0px"
	 viewBox="0 0 500 500" enable-background="new 0 0 500 500" xml:space="preserve">
<g>
	<g>
		<path fill="#808080" d="M493,7v486H7V7H493 M500,0H0v500h500V0L500,0z"/>
	</g>
</g>
<g>
	<path fill="none" stroke="#808080" stroke-width="7" stroke-miterlimit="10" d="M122.7,204.7h53.7v172.8h-53.7V204.7z M149.5,118.8
		c17.2,0,31.1,14,31.1,31.1c0,17.2-13.9,31.1-31.1,31.1c-17.2,0-31.1-14-31.1-31.1C118.4,132.8,132.3,118.8,149.5,118.8"/>
	<path fill="none" stroke="#808080" stroke-width="7" stroke-miterlimit="10" d="M210,204.7h51.5v23.6h0.7
		c7.2-13.6,24.7-27.9,50.8-27.9c54.4,0,64.4,35.8,64.4,82.3v94.8h-53.7v-84c0-20-0.4-45.8-27.9-45.8c-27.9,0-32.2,21.8-32.2,44.4
		v85.5H210V204.7z"/>
</g>
</svg>
