<?xml version="1.0" encoding="utf-8"?>
<!-- Generator: Adobe Illustrator 18.0.0, SVG Export Plug-In . SVG Version: 6.00 Build 0)  -->
<!DOCTYPE svg PUBLIC "-//W3C//DTD SVG 1.1//EN" "http://www.w3.org/Graphics/SVG/1.1/DTD/svg11.dtd">
<svg version="1.1" id="Layer_1" xmlns="http://www.w3.org/2000/svg" xmlns:xlink="http://www.w3.org/1999/xlink" x="0px" y="0px"
	 viewBox="0 0 500 500" enable-background="new 0 0 500 500" xml:space="preserve">
<g>
	<g>
		<path fill="#808080" d="M479.3,20.7v458.6H20.7V20.7H479.3 M485.3,14.7H14.7v470.6h470.6V14.7L485.3,14.7z"/>
	</g>
</g>
<g>
	<path fill="#808080" d="M304.1,135.7c16.6,0,31.6,7,42.1,18.2c13.1-2.6,25.5-7.4,36.6-14c-4.3,13.5-13.5,24.8-25.4,31.9
		c11.7-1.4,22.8-4.5,33.1-9.1c-7.7,11.6-17.5,21.7-28.8,29.9c0.1,2.5,0.2,5,0.2,7.5c0,76.2-58,164.2-164.2,164.2
		c-32.6,0-62.9-9.6-88.4-25.9c4.5,0.5,9.1,0.8,13.8,0.8c27,0,51.9-9.2,71.7-24.7c-25.2-0.5-46.6-17.1-53.9-40.1
		c3.5,0.7,7.1,1,10.9,1c5.3,0,10.4-0.7,15.2-2c-26.4-5.3-46.3-28.6-46.3-56.6c0-0.2,0-0.5,0-0.7c7.8,4.3,16.7,6.9,26.1,7.2
		c-15.5-10.3-25.7-28-25.7-48c0-10.6,2.8-20.5,7.8-29c28.5,34.9,71,57.9,118.9,60.3c-1-4.2-1.5-8.6-1.5-13.1
		C246.4,161.6,272.2,135.7,304.1,135.7 M392.5,127.8l-12.5,7.4c-10,5.9-20.7,10.2-32,12.7c-11.7-11.3-27.6-17.7-43.9-17.7
		c-34.9,0-63.2,28.4-63.2,63.2c0,2.4,0.1,4.8,0.4,7.1c-20.2-1.9-39.6-7.5-57.6-16.9c-19.5-10.1-36.5-23.8-50.4-40.9l-5-6.2l-4,6.9
		c-5.6,9.6-8.6,20.6-8.6,31.8c0,14.2,4.7,27.7,13.1,38.6c-1.8-0.8-3.6-1.6-5.4-2.6l-8-4.4l-0.2,9.1c0,0.3,0,0.6,0,0.9
		c0,21.4,10.9,40.8,27.7,52.3c-0.3-0.1-0.6-0.1-1-0.2l-9.1-1.7l2.8,8.8c6.7,21,23.7,36.5,44.4,41.9c-17.1,10.3-36.5,15.7-56.9,15.7
		c-4.4,0-8.8-0.3-13.1-0.8L86.2,330l20.2,12.9c27.3,17.5,59,26.8,91.4,26.8c26.1,0,50.6-5.2,72.7-15.4c20.3-9.4,38.2-22.8,53.3-39.9
		c27.7-31.5,43.7-73.1,43.7-114.3c0-1.6,0-3.2-0.1-4.8c10.8-8.2,20.2-18.1,27.8-29.5l10.6-15.8l-17.4,7.7c-3.7,1.6-7.4,3.1-11.3,4.3
		c4.9-6,8.6-12.9,11-20.4L392.5,127.8L392.5,127.8z"/>
</g>
</svg>
