<?xml version="1.0" encoding="utf-8"?>
<!-- Generator: Adobe Illustrator 18.0.0, SVG Export Plug-In . SVG Version: 6.00 Build 0)  -->
<!DOCTYPE svg PUBLIC "-//W3C//DTD SVG 1.1//EN" "http://www.w3.org/Graphics/SVG/1.1/DTD/svg11.dtd">
<svg version="1.1" id="Layer_1" xmlns="http://www.w3.org/2000/svg" xmlns:xlink="http://www.w3.org/1999/xlink" x="0px" y="0px"
	 viewBox="0 0 500 500" enable-background="new 0 0 500 500" xml:space="preserve">
<g>
	<g>
		<path fill="#2AA9E0" d="M493,7v486H7V7H493 M500,0H0v500h500V0L500,0z"/>
	</g>
</g>
<g>
	<path fill="#2AA9E0" d="M307.5,128.6c17.6,0,33.6,7.4,44.7,19.4c14-2.7,27.1-7.8,38.9-14.9c-4.6,14.3-14.3,26.3-27,33.9
		c12.4-1.5,24.2-4.8,35.2-9.7c-8.2,12.3-18.6,23.1-30.6,31.7c0.1,2.6,0.2,5.3,0.2,7.9c0,81-61.7,174.4-174.4,174.4
		c-34.6,0-66.8-10.1-94-27.5c4.8,0.6,9.7,0.9,14.6,0.9c28.7,0,55.2-9.8,76.1-26.2c-26.8-0.5-49.5-18.2-57.3-42.6
		c3.7,0.7,7.6,1.1,11.5,1.1c5.6,0,11-0.7,16.1-2.2c-28-5.6-49.2-30.4-49.2-60.1c0-0.3,0-0.5,0-0.8c8.3,4.6,17.7,7.3,27.8,7.7
		c-16.4-11-27.3-29.8-27.3-51c0-11.2,3-21.8,8.3-30.8c30.2,37.1,75.4,61.5,126.3,64c-1-4.5-1.6-9.2-1.6-14
		C246.2,156,273.6,128.6,307.5,128.6 M403.4,117.7l-15.9,9.4c-10.3,6.1-21.4,10.6-33.1,13.3c-12.6-11.9-29.5-18.7-47-18.7
		c-37.7,0-68.3,30.6-68.3,68.3c0,2.1,0.1,4.2,0.3,6.3c-20.8-2.1-40.8-8-59.4-17.7c-20.6-10.6-38.5-25.1-53.2-43.2l-6.4-7.8l-5.1,8.7
		c-6.1,10.4-9.3,22.3-9.3,34.3c0,13.8,4.1,27,11.6,38.1c-0.6-0.3-1.1-0.6-1.7-0.9l-10.1-5.6l-0.3,11.6c0,0.3,0,0.6,0,0.9
		c0,21.4,10,40.9,25.9,53.5l-7.7-1.5l3.6,11.2c7,21.8,24.2,38.2,45.3,44.5c-17.4,9.9-37,15.1-57.5,15.1c-4.6,0-9.3-0.3-13.8-0.8
		l-30.2-3.6l25.6,16.4c29.2,18.7,63,28.6,97.7,28.6c28,0,54.1-5.6,77.8-16.5c21.7-10.1,40.9-24.4,57-42.7C359,285.6,376,241,376,197
		c0-1.5,0-3-0.1-4.5c11.4-8.7,21.2-19.2,29.3-31.3l13.4-20.1l-22.1,9.8c-2.7,1.2-5.5,2.3-8.4,3.3c4.2-5.8,7.4-12.2,9.6-19.1
		L403.4,117.7L403.4,117.7z"/>
</g>
</svg>
