<?xml version="1.0" encoding="utf-8"?>
<!-- Generator: Adobe Illustrator 18.0.0, SVG Export Plug-In . SVG Version: 6.00 Build 0)  -->
<!DOCTYPE svg PUBLIC "-//W3C//DTD SVG 1.1//EN" "http://www.w3.org/Graphics/SVG/1.1/DTD/svg11.dtd">
<svg version="1.1" id="Layer_1" xmlns="http://www.w3.org/2000/svg" xmlns:xlink="http://www.w3.org/1999/xlink" x="0px" y="0px"
	 viewBox="0 0 317.3 608" enable-background="new 0 0 317.3 608" xml:space="preserve">
<g>
	
		<image overflow="visible" opacity="0.2" width="314" height="612" xlink:href="48115514B240761A.png"  transform="matrix(1 0 0 1 0.1148 -2)">
	</image>
	<g>
		<g>
			<g>
				<rect x="23.2" y="201.2" fill="#9EA09E" width="3.5" height="19.5"/>
				<path fill="#D0D0CF" d="M23.2,220.7L23.2,220.7c-0.7,0-1.3-0.8-1.3-1.7v-16.1c0-0.9,0.6-1.7,1.3-1.7h0V220.7z"/>
			</g>
			<g>
				<rect x="204.1" y="21.2" fill="#9EA09E" width="43.7" height="3.5"/>
				<path fill="#D0D0CF" d="M204.1,21.2L204.1,21.2c0-0.7,0.8-1.3,1.7-1.3h40.3c0.9,0,1.7,0.6,1.7,1.3v0H204.1z"/>
			</g>
			<g>
				<rect x="23.2" y="154" fill="#9EA09E" width="3.5" height="19.5"/>
				<path fill="#D0D0CF" d="M23.2,173.4L23.2,173.4c-0.7,0-1.3-0.8-1.3-1.7v-16.1c0-0.9,0.6-1.7,1.3-1.7h0V173.4z"/>
			</g>
			<rect x="23.2" y="100.7" fill="#9EA09E" width="3.5" height="25.5"/>
			<g>
				<path fill="#F6F7F9" d="M252.3,588.2H65.1c-22.1,0-40.1-18-40.1-40.1V62.8c0-22.1,18-40.1,40.1-40.1h187.2
					c22.1,0,40.1,18,40.1,40.1v485.3C292.4,570.2,274.4,588.2,252.3,588.2z"/>
				<path fill="#E0E3E6" d="M252.3,27.7c19.4,0,35.1,15.7,35.1,35.1v485.3c0,19.4-15.7,35.1-35.1,35.1H65.1
					c-19.4,0-35.1-15.7-35.1-35.1V62.8c0-19.4,15.7-35.1,35.1-35.1H252.3 M252.3,22.7H65.1c-22.1,0-40.1,18-40.1,40.1v485.3
					c0,22.1,18,40.1,40.1,40.1h187.2c22.1,0,40.1-18,40.1-40.1V62.8C292.4,40.6,274.4,22.7,252.3,22.7L252.3,22.7z"/>
				<path fill="#DFE1E0" d="M252.3,26.7c19.9,0,36.1,16.2,36.1,36.1v485.3c0,19.9-16.2,36.1-36.1,36.1H65.1
					C45.2,584.2,29,568,29,548.1V62.8c0-19.9,16.2-36.1,36.1-36.1H252.3 M252.3,22.7H65.1c-22.1,0-40.1,18-40.1,40.1v485.3
					c0,22.1,18,40.1,40.1,40.1h187.2c22.1,0,40.1-18,40.1-40.1V62.8C292.4,40.6,274.4,22.7,252.3,22.7L252.3,22.7z"/>
				<path fill="#BDBFBF" d="M252.3,25.7c20.5,0,37.1,16.6,37.1,37.1v485.3c0,20.5-16.6,37.1-37.1,37.1H65.1
					c-20.5,0-37.1-16.6-37.1-37.1V62.8c0-20.5,16.6-37.1,37.1-37.1H252.3 M252.3,22.7H65.1c-22.1,0-40.1,18-40.1,40.1v485.3
					c0,22.1,18,40.1,40.1,40.1h187.2c22.1,0,40.1-18,40.1-40.1V62.8C292.4,40.6,274.4,22.7,252.3,22.7L252.3,22.7z"/>
			</g>
			<circle fill="#424241" cx="158.7" cy="50.2" r="5.1"/>
			<circle fill="#424241" cx="122" cy="71.6" r="3.5"/>
			<circle fill="#153350" cx="158.7" cy="50.2" r="1.9"/>
			<path fill="#424241" d="M178.1,74.1h-38.8c-1.4,0-2.5-1.1-2.5-2.5v-0.1c0-1.4,1.1-2.5,2.5-2.5h38.8c1.4,0,2.5,1.1,2.5,2.5v0.1
				C180.6,73,179.5,74.1,178.1,74.1z"/>
			<path fill="#2B2B2B" d="M272.9,510.6H44.5c-1.4,0-2.5-1.1-2.5-2.5V103.2c0-1.4,1.1-2.5,2.5-2.5h228.4c1.4,0,2.5,1.1,2.5,2.5
				v404.9C275.4,509.5,274.3,510.6,272.9,510.6z"/>
			<circle fill="none" stroke="#BDBFBF" stroke-width="3" stroke-miterlimit="10" cx="158.7" cy="547.5" r="22.3"/>
			<path fill="#D0D0CF" d="M23.2,126.2L23.2,126.2c-0.7,0-1.3-0.8-1.3-1.7v-22.1c0-0.9,0.6-1.7,1.3-1.7h0V126.2z"/>
		</g>
	</g>
</g>
<rect x="26.5" y="71.1" fill="#E8E8E8" width="3" height="4.9"/>
<rect x="290.9" y="71.1" fill="#E8E8E8" width="3" height="4.9"/>
<rect x="26.5" y="535.4" fill="#E8E8E8" width="3" height="4.9"/>
<rect x="290.9" y="535.4" fill="#E8E8E8" width="3" height="4.9"/>
</svg>
