<?xml version="1.0" encoding="utf-8"?>
<!-- Generator: Adobe Illustrator 18.0.0, SVG Export Plug-In . SVG Version: 6.00 Build 0)  -->
<!DOCTYPE svg PUBLIC "-//W3C//DTD SVG 1.1//EN" "http://www.w3.org/Graphics/SVG/1.1/DTD/svg11.dtd">
<svg version="1.1" id="Layer_1" xmlns="http://www.w3.org/2000/svg" xmlns:xlink="http://www.w3.org/1999/xlink" x="0px" y="0px"
	 viewBox="0 0 490 164" enable-background="new 0 0 490 164" xml:space="preserve">
<g>
	<polygon points="245,31 62,31 62,31 0,31 0,164 62,164 62,62 112,62 112,164 174,164 174,62 214,62 214,164 276,164 276,61 245,61 
			"/>
	<polygon points="490,61 490,31 418,31 418,42.7 418,72 378,72 378,0 316,0 316,164 378,164 378,103 418,103 418,149.8 418,164 
		490,164 490,103 449,103 449,61 	"/>
</g>
</svg>
